<?xml version="1.0" encoding="UTF-8"?>
<svg id="a" xmlns="http://www.w3.org/2000/svg" version="1.1" viewBox="0 0 729 262">
  <!-- Generator: Adobe Illustrator 29.8.7, SVG Export Plug-In . SVG Version: 2.1.1 Build 1)  -->
  <defs>
    <style>
      .st0 {
        fill: #fff;
      }
    </style>
  </defs>
  <g id="b">
    <circle cx="105.7" cy="105.8" r="94.1"/>
  </g>
  <g id="c">
    <path class="st0" d="M73,126.4h-6.9v8.9h6.9c.6,0,1.1-.2,1.5-.7s.6-1,.6-1.7v-4.2c0-.7-.2-1.2-.6-1.7-.4-.4-.9-.7-1.5-.7h0Z"/>
    <path class="st0" d="M97.2,126.4h-4.8c-.6,0-1.1.2-1.5.7-.4.4-.5,1-.5,1.7v14.6c0,.7.2,1.2.5,1.7.4.5.9.7,1.5.7h4.8c.6,0,1.1-.2,1.4-.7.4-.4.6-1,.6-1.7v-14.6c0-.7-.2-1.2-.6-1.7-.4-.4-.9-.7-1.4-.7Z"/>
    <path class="st0" d="M122.1,126.4h-6.6v8.2h6.6c.6,0,1.1-.2,1.4-.6.4-.4.5-1,.5-1.7v-3.5c0-.7-.2-1.2-.5-1.7-.4-.4-.9-.7-1.4-.7Z"/>
    <path class="st0" d="M105.7,0C47.3,0,0,47.3,0,105.7s47.3,105.7,105.7,105.7,105.7-47.3,105.7-105.7S164.1,0,105.7,0h0ZM66.2,49h54.3l-8.3,13.2h-54.3l8.3-13.2ZM55.1,144.3c0,1.7-.6,3.1-1.7,4.3-1.2,1.2-2.6,1.8-4.3,1.8h-7.2c-1.7,0-3.1-.6-4.3-1.7-1.1-1.1-1.7-2.5-1.7-4.3v-2.8h4.4l.6,2.6c.3,1.1,1,1.6,2.3,1.6h4.8c.6,0,1.1-.2,1.5-.7.4-.4.5-1,.5-1.7v-3.1c0-1.5-.7-2.3-2-2.3h-6.1c-1.7,0-3.1-.6-4.3-1.8s-1.8-2.6-1.8-4.3v-4.1c0-1.6.6-3.1,1.8-4.3,1.2-1.2,2.7-1.8,4.3-1.8h7.1c1.7,0,3.1.6,4.2,1.7s1.7,2.5,1.7,4.3v2.6h-4.4l-.7-2.3c-.3-1.1-1.1-1.6-2.2-1.6h-4.8c-.6,0-1.1.2-1.5.7s-.6,1-.6,1.7v2.4c0,1.5.7,2.2,2,2.2h6.1c1.6,0,3.1.6,4.3,1.8s1.8,2.6,1.8,4.3v4.8h.2ZM80.1,133.8c0,1.7-.6,3.1-1.8,4.3s-2.7,1.8-4.3,1.8h-7.9v10.5h-5v-28.6h12.9c1.7,0,3.1.6,4.3,1.8h0c1.2,1.2,1.8,2.6,1.8,4.2v6h0ZM104.3,144.3c0,1.7-.6,3.2-1.8,4.3-1.2,1.2-2.6,1.8-4.3,1.8h-6.8c-1.7,0-3.1-.6-4.3-1.8s-1.8-2.6-1.8-4.3v-16.4c0-1.6.6-3.1,1.8-4.2,1.2-1.2,2.6-1.8,4.3-1.8h6.8c1.7,0,3.1.6,4.3,1.8h0c1.2,1.1,1.8,2.6,1.8,4.3v16.4h0q0,0,0,0h0ZM105.5,115H36.7l16.7-26.4h-12.3l8.4-13.2h51.2l-8.4,13.2h-22.9l-8.5,13.2h36.9l33.8-53.3,42,66.5h-15.9l-8.4-13.2h-24.9l8.4-13.2h8.1l-9.5-15-26.1,41.5s.2,0,.2-.1ZM124.9,150.4l-4.7-11.2h-4.8v11.2h-5.1v-28.6h12.6c1.7,0,3.1.6,4.3,1.8s1.8,2.6,1.8,4.2v5c0,1.3-.4,2.5-1.1,3.5-.7,1-1.7,1.8-2.8,2.2l5,11.8h-5.4.2ZM151.9,126.5h-7.3v23.9h-5.1v-23.9h-7.3v-4.6h19.6v4.6s.1,0,.1,0ZM174.8,144.3c0,1.7-.6,3.1-1.8,4.3s-2.6,1.8-4.3,1.8h-7.1c-1.7,0-3.1-.6-4.3-1.7-1.1-1.1-1.7-2.5-1.7-4.3v-2.8h4.4l.7,2.6c.3,1.1,1.1,1.6,2.3,1.6h4.8c.6,0,1.1-.2,1.5-.7.4-.4.5-1,.5-1.7v-3.1c0-1.5-.7-2.3-2-2.3h-6.1c-1.7,0-3.1-.6-4.3-1.8s-1.8-2.6-1.8-4.3v-4.1c0-1.6.6-3.1,1.8-4.2,1.2-1.2,2.6-1.8,4.3-1.8h7c1.7,0,3.1.6,4.3,1.7,1.1,1.1,1.7,2.5,1.7,4.3v2.6h-4.4l-.7-2.3c-.4-1.1-1.1-1.6-2.2-1.6h-4.8c-.6,0-1.1.2-1.5.7s-.6,1-.6,1.7v2.4c0,1.5.7,2.2,2,2.2h6.1c1.7,0,3.1.6,4.3,1.8s1.8,2.6,1.8,4.3v4.8h.1ZM177.9,123.3h-1.1v2.3h-.5v-2.3h-1.1v-.5h2.7v.5h0ZM181.1,125.5v-2s0,.2-.1.3l-.9,1.4h0l-.9-1.4s-.1-.2-.2-.3v2h-.5v-2.8h.5l1.1,1.7,1.1-1.7h.4v2.8h-.5Z"/>
    <path class="st0" d="M578,107.1v-20.2c0-.2-.2-.4-.4-.4h-40c-.2,0-.4-.2-.4-.4v-18.4c0-.2.2-.4.4-.4h40c.2,0,.4-.2.4-.4v-18c0-.2-.2-.4-.4-.4h-40c-.2,0-.4-.2-.4-.4v-17c0-.2.2-.4.5-.4h40c.2,0,.4-.2.4-.4V9.8c0-.2-.2-.4-.4-.4h-62.3c-.2,0-.4.2-.4.4v98c0,.2.2.4.4.4h62c.4,0,.7-.3.7-.7h0v-.4h0Z"/>
    <path class="st0" d="M665.5,9.7v97.7c0,.2.2.4.4.4h62.3c.2,0,.4-.2.4-.4v-20.5c0-.2-.2-.4-.4-.4h-40c-.2,0-.4-.2-.4-.4v-18.4c0-.2.2-.4.4-.4h40c.2,0,.4-.2.4-.4v-18c0-.2-.2-.4-.4-.4h-40c-.2,0-.4-.2-.4-.4v-17c0-.2.2-.4.5-.4h40c.2,0,.4-.2.4-.4V9.8c0-.2-.2-.4-.4-.4h-62c-.4,0-.7.3-.7.7h0v-.4h0Z"/>
    <path class="st0" d="M448,107.1v-20.2c0-.2-.2-.4-.4-.4h-31.8c-.2,0-.4-.2-.4-.4V9.5c0-.2-.2-.4-.4-.4h-21.3c-.2,0-.4.2-.4.4v98c0,.2.2.4.4.4h53.8c.4,0,.7-.3.7-.7h-.2q0,0,0-.1Z"/>
    <path class="st0" d="M508.8,107.1v-20.2c0-.2-.2-.4-.4-.4h-31.8c-.2,0-.4-.2-.4-.4V9.5c0-.2-.2-.4-.4-.4h-21.3c-.2,0-.4.2-.4.4v98c0,.2.2.4.4.4h53.8c.4,0,.7-.3.7-.7h-.2q0,0,0-.1Z"/>
    <path class="st0" d="M372.4,107.6l14.4-18c.1,0,.2-.3.2-.5V27.8c0-.2,0-.4-.2-.5l-18.2-18.2s-.2-.1-.3-.1h-36.5c-.2,0-.4,0-.5.2l-18.2,18.2s-.1.2-.1.3v61.4c0,.2,0,.3.2.5l14.4,18c.1.2.4.3.6.3h43.6c.2,0,.4,0,.6-.3h0ZM335.2,33.2l2.7-2.7s.2-.1.3-.1h23.4c.2,0,.4,0,.5.2l2.7,2.7s.1.2.1.3v49s0,.2-.1.3l-2.8,3.4s-.2.2-.3.2h-23.4c-.1,0-.3,0-.3-.2l-2.8-3.4s-.1-.2-.1-.3v-48.9c0-.2,0-.4.2-.5h-.1Z"/>
    <path class="st0" d="M306.2,66.7h-20.8c-.2,0-.4.2-.4.4v15.5s0,.2-.1.3l-2.8,3.4s-.2.2-.3.2h-23.4c-.1,0-.3,0-.3-.2l-2.8-3.4s-.1-.2-.1-.3v-48.9c0-.2,0-.4.2-.5l2.7-2.7s.2-.1.3-.1h23.4c.2,0,.4,0,.5.2l2.7,2.7s.1.2.1.3v16c0,.2.2.4.4.4h21.1c.2,0,.4-.2.4-.4v-21.8c0-.2,0-.4-.2-.5l-18.2-18.2s-.2-.1-.3-.1h-36.5c-.2,0-.4,0-.5.2l-18.2,18.2s-.1.2-.1.3v61.4c0,.2,0,.3.2.5l14.4,18c.1.2.4.3.6.3h43.6c.2,0,.4,0,.6-.3l14.4-18c.1,0,.2-.3.2-.5v-21.6c0-.4-.3-.7-.7-.7h-.1Z"/>
    <path class="st0" d="M629.2,107.6l7.2-9.3c.3-.3.8-.2.8.3v8.9c0,.2.2.4.4.4h21.1c.2,0,.4-.2.4-.4v-45.6h0v-13.1c0-.2-.2-.4-.4-.4h-43.9c-.2,0-.4.2-.4.4v18c0,.2.2.4.4.4h21.8c.2,0,.4.2.4.4v15.4l-2.8,3.4s-.2.2-.3.2h-24.4s-.3,0-.3-.2l-2.8-3.4v-49.2c0-.2,0-.4.2-.5l2.7-2.7s.2-.1.3-.1h24.3c.2,0,.4,0,.5.2l2.7,2.7v7.5c0,.2.2.4.4.4h21.1c.2,0,.4-.2.4-.4v-13c0-.2,0-.4-.2-.5l-18.2-18.2s-.2-.1-.3-.1h-37.4c-.2,0-.4,0-.5.2l-18.2,18.2v61.7c0,.2,0,.3.2.5l14.4,18c0,.2.4.3.6.3h29.2c.2,0,.4,0,.6-.3h.2s0,0,0,0h-.2Z"/>
    <path class="st0" d="M347.8,202.4l13-16.2c0-.1.1-.3.1-.4v-55c0-.2,0-.3-.2-.5l-16.2-16.2c-.1,0-.3-.2-.5-.2h-32.6c-.2,0-.3,0-.5.2l-16.2,16.2c-.1.1-.2.3-.2.5v55c0,.2,0,.3.1.4l13,16.2c.1.2.3.3.5.3h39.2c.2,0,.4,0,.5-.3h0ZM314.5,135.6l2.3-2.3c.1-.1.3-.2.5-.2h20.8c.2,0,.3,0,.5.2l2.3,2.3c.1.1.2.3.2.5v43.8c0,.2,0,.3-.2.4l-2.4,2.9c-.1.2-.3.2-.5.2h-20.8c-.2,0-.4,0-.5-.2l-2.4-2.9c0-.1-.2-.3-.2-.4v-43.8c0-.2,0-.3.2-.5h.2Z"/>
    <path class="st0" d="M419.6,202.4l13-16.2c0-.1.1-.3.1-.4v-55c0-.2,0-.3-.2-.5l-16.2-16.2c-.1,0-.3-.2-.5-.2h-32.6c-.2,0-.3,0-.5.2l-16.2,16.2c-.1.1-.2.3-.2.5v55c0,.2,0,.3.1.4l13,16.2c.1.2.3.3.5.3h39.2c.2,0,.4,0,.5-.3h0ZM386.3,135.6l2.3-2.3c.1-.1.3-.2.5-.2h20.8c.2,0,.3,0,.5.2l2.3,2.3c.1.1.2.3.2.5v43.8c0,.2,0,.3-.2.4l-2.4,2.9c-.1.2-.3.2-.5.2h-20.8c-.2,0-.4,0-.5-.2l-2.4-2.9c0-.1-.2-.3-.2-.4v-43.8c0-.2,0-.3.2-.5h.2Z"/>
    <path class="st0" d="M233.6,202.6h18.7c.2,0,.4-.2.4-.4v-32c0-.2.2-.4.4-.4h36c.2,0,.4-.2.4-.4v-18.4c0-.2-.2-.4-.4-.4h-36c-.2,0-.4-.2-.4-.4v-16.3c0-.2.2-.4.4-.4h36c.2,0,.4-.2.4-.4v-18.5c0-.2-.2-.4-.4-.4h-55.8c-.2,0-.4.2-.4.4v87.6c0,.4.3.7.7.7h0v-.3h0Z"/>
    <path class="st0" d="M437.4,133.3h17.1c.2,0,.4.2.4.4v68.4c0,.2.2.4.4.4h18.9c.2,0,.4-.2.4-.4v-68.4c0-.2.2-.4.4-.4h17.3c.2,0,.4-.2.4-.4v-18.5c0-.2-.2-.4-.4-.4h-55.2c-.2,0-.4.2-.4.4v18.3c0,.4.3.7.7.7h0c0,0,0-.1,0-.1h0Z"/>
    <path class="st0" d="M497.4,114.6v87.4c0,.4.3.7.7.7h44.6c.2,0,.4,0,.5-.2l14.3-14.9c0-.1.2-.3.2-.5v-20.8c0-.2,0-.3-.2-.5l-8.4-8.9v-.5l8.4-9.7c0-.1.2-.3.2-.4v-16.9c0-.2,0-.3-.2-.5l-14.2-14.9s-.3-.2-.5-.2h-44.6c-.4,0-.7.3-.7.7h-.1s0,0,0,0h0ZM537.7,181l-2.2,2.2c0,.1-.3.2-.5.2h-17.1c-.4,0-.7-.3-.7-.7v-17.9c0-.4.3-.7.7-.7h17.1c.2,0,.3,0,.5.2l2.2,2.2c0,.1.2.3.2.5v13.5c0,.2,0,.3-.2.5h0ZM537.7,146.7l-2.2,2.2c0,.1-.3.2-.5.2h-17.1c-.4,0-.7-.3-.7-.7v-14.5c0-.4.3-.7.7-.7h17.1c.2,0,.3,0,.5.2l2.2,2.2c0,.1.2.3.2.5v10.1c0,.2,0,.3-.2.5h0Z"/>
    <path class="st0" d="M575.8,114.4l-13.3,49h0v38.8c0,.2.2.4.4.4h18.9c.2,0,.4-.2.4-.4v-18.3c0-.2.2-.4.4-.4h18.1c.2,0,.4.2.4.4v18.3c0,.2.2.4.4.4h18.9c.2,0,.4-.2.4-.4v-38.6h0c0-.1-13.5-49.1-13.5-49.1,0-.3-.3-.5-.7-.5h-30.4c-.3,0-.6.2-.7.5h.3q0,0,0-.1ZM600.6,164.9h-17.9c-.2,0-.4-.2-.4-.4v-2.1l8.7-30c0-.2.2-.3.3-.3h.9c.2,0,.3.1.3.3l8.7,30v1.9c0,.4-.3.7-.7.7h0q0,0,0,0h.1Z"/>
    <path class="st0" d="M728.7,202v-18.1c0-.2-.2-.4-.4-.4h-28.1c-.2,0-.4-.2-.4-.4v-68.7c0-.2-.2-.4-.4-.4h-19c-.2,0-.4.2-.4.4v87.9c0,.2.2.4.4.4h47.8c.4,0,.7-.3.7-.7h-.2,0Z"/>
    <path class="st0" d="M674.8,202v-18.1c0-.2-.2-.4-.4-.4h-28c-.2,0-.4-.2-.4-.4v-68.7c0-.2-.2-.4-.4-.4h-19c-.2,0-.4.2-.4.4v87.9c0,.2.2.4.4.4h47.8c.4,0,.7-.3.7-.7h-.3,0Z"/>
    <path class="st0" d="M720.3,113.9h3.6v.6h-1.4v3h-.7v-3h-1.4v-.6h0ZM728.2,113.9l-1.4,2.2-1.4-2.2h-.6v3.7h.6v-2.7s.2.3.2.4l1.2,1.8h0l1.2-1.8s0-.3.2-.4v2.7h.7v-3.7h-.8,0Z"/>
  </g>
  <path class="st0" d="M53,255.8l-5.4,6.1H6.1v-41.7h46.9l-5.3,6.1h-28.8v29.4h34.2-.1Z"/>
  <path class="st0" d="M67.9,262l-10.1-11.5v-30.2h47.3v41.7h-37.2ZM70.2,226.5v21.4l7.1,8h15.3v-29.4h-22.4Z"/>
  <path class="st0" d="M134.3,262v-41.7l25.7,16.7,25.7-16.7v41.7h-12.3v-23.9l-13.3,8.5-15.4-9.9v25.3s-10.2,0-10.2,0h-.2Z"/>
  <path class="st0" d="M111.5,262v-41.7l25.7,16.7,25.7-16.7v41.7h-9.7v-25.7c.1,0-15.9,10.3-15.9,10.3l-13.2-8.5v23.9h-12.6Z"/>
  <path class="st0" d="M191.7,220.3h12.5v41.7h-12.5v-41.7Z"/>
  <path class="st0" d="M257.7,255.7l-5.4,6.3h-37.6l-5.4-6.1h33.5l2.2-2.6v-9.1h-34.1v-17.3l5.7-6.6h42.5l-5.2,6.1h-27.8l-2.7,3v8.6h34.3v17.6h0Z"/>
  <path class="st0" d="M310.6,255.7l-5.4,6.3h-37.6l-5.4-6.1h33.5l2.2-2.6v-9.1h-34.1v-17.3l5.7-6.6h42.5l-5.2,6.1h-27.8l-2.7,3v8.6h34.3v17.6h0Z"/>
  <path class="st0" d="M317.2,220.3h12.5v41.7h-12.5v-41.7Z"/>
  <path class="st0" d="M345.8,262l-10.1-11.5v-30.2h47.3v41.7h-37.2,0ZM348.1,226.5v21.4l7.1,8h15.3v-29.4h-22.4Z"/>
  <path class="st0" d="M434.3,262l-34.1-22.7v22.7h-12.5v-41.7l34.3,22.5v-22.5h12.3v41.7h0Z"/>
  <path class="st0" d="M481,255.9l5.4,6.1h-46.7v-41.7h46.8l-5.3,6.1h-29v11.7h31.5v6.1h-31.5v11.6h28.8Z"/>
  <path class="st0" d="M542.3,262h-14.7l-22.5-25.6h21.1v-9.9h-23v35.6h-12.6v-41.7h47.9v22.2h-13.2l17,19.5h0Z"/>
  <path class="st0" d="M609.9,220.3v41.7h-12.5v-17.8h-22v17.8h-12.8v-41.7h47.3ZM575.5,226.5v11.6h21.6v-11.6h-21.6Z"/>
  <path class="st0" d="M627.1,247.2v14.8h-12.5v-41.7h46.2v26.9h-33.7ZM627,226.5v14.6h21.3v-14.6h-21.3Z"/>
  <path class="st0" d="M678.1,247.2v14.8h-12.5v-41.7h46.2v26.9h-33.7ZM678,226.5v14.6h21.3v-14.6h-21.3Z"/>
</svg>